<?xml version="1.0" encoding="UTF-8" standalone="no"?>
<!DOCTYPE svg PUBLIC "-//W3C//DTD SVG 1.1//EN"
 "http://www.w3.org/Graphics/SVG/1.1/DTD/svg11.dtd">
<!-- Generated by graphviz version 2.40.1 (20161225.0304)
 -->
<!-- Title: Program Pages: 1 -->
<svg width="382pt" height="476pt"
 viewBox="0.00 0.00 382.21 476.00" xmlns="http://www.w3.org/2000/svg" xmlns:xlink="http://www.w3.org/1999/xlink">
<g id="graph0" class="graph" transform="scale(1 1) rotate(0) translate(4 472)">
<title>Program</title>
<polygon fill="#ffffff" stroke="transparent" points="-4,4 -4,-472 378.2098,-472 378.2098,4 -4,4"/>
<!-- def_21 -->
<g id="node1" class="node">
<title>def_21</title>
<ellipse fill="none" stroke="#000000" cx="95.0877" cy="-162" rx="61.9828" ry="18"/>
<text text-anchor="middle" x="95.0877" y="-157.8" font-family="Times,serif" font-size="14.00" fill="#000000">char_to_num</text>
</g>
<!-- def_22 -->
<g id="node2" class="node">
<title>def_22</title>
<ellipse fill="none" stroke="#000000" cx="95.0877" cy="-234" rx="28.991" ry="18"/>
<text text-anchor="middle" x="95.0877" y="-229.8" font-family="Times,serif" font-size="14.00" fill="#000000">digit</text>
</g>
<!-- def_22&#45;&gt;def_21 -->
<g id="edge11" class="edge">
<title>def_22&#45;&gt;def_21</title>
<path fill="none" stroke="#000000" d="M95.0877,-215.8314C95.0877,-208.131 95.0877,-198.9743 95.0877,-190.4166"/>
<polygon fill="#000000" stroke="#000000" points="98.5878,-190.4132 95.0877,-180.4133 91.5878,-190.4133 98.5878,-190.4132"/>
</g>
<!-- def_23 -->
<g id="node3" class="node">
<title>def_23</title>
<ellipse fill="none" stroke="#000000" cx="95.0877" cy="-306" rx="40.5712" ry="18"/>
<text text-anchor="middle" x="95.0877" y="-301.8" font-family="Times,serif" font-size="14.00" fill="#000000">number</text>
</g>
<!-- def_23&#45;&gt;def_22 -->
<g id="edge2" class="edge">
<title>def_23&#45;&gt;def_22</title>
<path fill="none" stroke="#000000" d="M95.0877,-287.8314C95.0877,-280.131 95.0877,-270.9743 95.0877,-262.4166"/>
<polygon fill="#000000" stroke="#000000" points="98.5878,-262.4132 95.0877,-252.4133 91.5878,-262.4133 98.5878,-262.4132"/>
</g>
<!-- def_24 -->
<g id="node4" class="node">
<title>def_24</title>
<ellipse fill="none" stroke="#000000" cx="95.0877" cy="-378" rx="30.1958" ry="18"/>
<text text-anchor="middle" x="95.0877" y="-373.8" font-family="Times,serif" font-size="14.00" fill="#000000">atom</text>
</g>
<!-- def_24&#45;&gt;def_23 -->
<g id="edge14" class="edge">
<title>def_24&#45;&gt;def_23</title>
<path fill="none" stroke="#000000" d="M95.0877,-359.8314C95.0877,-352.131 95.0877,-342.9743 95.0877,-334.4166"/>
<polygon fill="#000000" stroke="#000000" points="98.5878,-334.4132 95.0877,-324.4133 91.5878,-334.4133 98.5878,-334.4132"/>
</g>
<!-- def_29 -->
<g id="node9" class="node">
<title>def_29</title>
<ellipse fill="none" stroke="#000000" cx="227.0877" cy="-306" rx="56.7213" ry="18"/>
<text text-anchor="middle" x="227.0877" y="-301.8" font-family="Times,serif" font-size="14.00" fill="#000000">expr_parser</text>
</g>
<!-- def_24&#45;&gt;def_29 -->
<g id="edge7" class="edge">
<title>def_24&#45;&gt;def_29</title>
<path fill="none" stroke="#000000" d="M117.4797,-365.7862C137.0901,-355.0896 165.9977,-339.3218 189.2026,-326.6646"/>
<polygon fill="#000000" stroke="#000000" points="191.004,-329.6689 198.107,-321.8077 187.652,-323.5236 191.004,-329.6689"/>
</g>
<!-- def_25 -->
<g id="node5" class="node">
<title>def_25</title>
<ellipse fill="none" stroke="#000000" cx="273.0877" cy="-18" rx="27" ry="18"/>
<text text-anchor="middle" x="273.0877" y="-13.8" font-family="Times,serif" font-size="14.00" fill="#000000">op</text>
</g>
<!-- def_26 -->
<g id="node6" class="node">
<title>def_26</title>
<ellipse fill="none" stroke="#000000" cx="212.0877" cy="-90" rx="33.0469" ry="18"/>
<text text-anchor="middle" x="212.0877" y="-85.8" font-family="Times,serif" font-size="14.00" fill="#000000">unary</text>
</g>
<!-- def_26&#45;&gt;def_24 -->
<g id="edge6" class="edge">
<title>def_26&#45;&gt;def_24</title>
<path fill="none" stroke="#000000" d="M179.9034,-94.5517C131.299,-102.1586 42.8328,-119.1127 24.0877,-144 -24.3696,-208.3351 10.3532,-251.3321 45.0877,-324 50.856,-336.0678 60.2679,-347.296 69.3789,-356.3533"/>
<polygon fill="#000000" stroke="#000000" points="67.198,-359.1074 76.8748,-363.4215 72.0004,-354.0145 67.198,-359.1074"/>
</g>
<!-- def_26&#45;&gt;def_25 -->
<g id="edge8" class="edge">
<title>def_26&#45;&gt;def_25</title>
<path fill="none" stroke="#000000" d="M226.2356,-73.3008C234.1227,-63.9915 244.081,-52.2374 252.7865,-41.9621"/>
<polygon fill="#000000" stroke="#000000" points="255.6423,-44.0057 259.4361,-34.1134 250.3014,-39.4808 255.6423,-44.0057"/>
</g>
<!-- def_27 -->
<g id="node7" class="node">
<title>def_27</title>
<ellipse fill="none" stroke="#000000" cx="244.0877" cy="-162" rx="68.9023" ry="18"/>
<text text-anchor="middle" x="244.0877" y="-157.8" font-family="Times,serif" font-size="14.00" fill="#000000">product_parser</text>
</g>
<!-- def_27&#45;&gt;def_25 -->
<g id="edge1" class="edge">
<title>def_27&#45;&gt;def_25</title>
<path fill="none" stroke="#000000" d="M247.7605,-143.7623C252.7287,-119.0928 261.6368,-74.8598 267.4542,-45.9731"/>
<polygon fill="#000000" stroke="#000000" points="270.9014,-46.5838 269.4446,-36.0896 264.0392,-45.2018 270.9014,-46.5838"/>
</g>
<!-- def_27&#45;&gt;def_26 -->
<g id="edge4" class="edge">
<title>def_27&#45;&gt;def_26</title>
<path fill="none" stroke="#000000" d="M236.0127,-143.8314C232.4231,-135.7547 228.1215,-126.0761 224.1618,-117.1668"/>
<polygon fill="#000000" stroke="#000000" points="227.309,-115.63 220.0492,-107.9134 220.9123,-118.473 227.309,-115.63"/>
</g>
<!-- def_28 -->
<g id="node8" class="node">
<title>def_28</title>
<ellipse fill="none" stroke="#000000" cx="244.0877" cy="-234" rx="55.5966" ry="18"/>
<text text-anchor="middle" x="244.0877" y="-229.8" font-family="Times,serif" font-size="14.00" fill="#000000">sum_parser</text>
</g>
<!-- def_28&#45;&gt;def_25 -->
<g id="edge3" class="edge">
<title>def_28&#45;&gt;def_25</title>
<path fill="none" stroke="#000000" d="M278.1626,-219.7326C294.6102,-210.8969 312.7621,-197.7985 322.0877,-180 346.0207,-134.3223 314.1105,-75.1371 291.6755,-42.4319"/>
<polygon fill="#000000" stroke="#000000" points="294.294,-40.0737 285.6533,-33.9427 288.5847,-44.1239 294.294,-40.0737"/>
</g>
<!-- def_28&#45;&gt;def_27 -->
<g id="edge12" class="edge">
<title>def_28&#45;&gt;def_27</title>
<path fill="none" stroke="#000000" d="M244.0877,-215.8314C244.0877,-208.131 244.0877,-198.9743 244.0877,-190.4166"/>
<polygon fill="#000000" stroke="#000000" points="247.5878,-190.4132 244.0877,-180.4133 240.5878,-190.4133 247.5878,-190.4132"/>
</g>
<!-- def_29&#45;&gt;def_28 -->
<g id="edge16" class="edge">
<title>def_29&#45;&gt;def_28</title>
<path fill="none" stroke="#000000" d="M231.3775,-287.8314C233.1956,-280.131 235.3576,-270.9743 237.3782,-262.4166"/>
<polygon fill="#000000" stroke="#000000" points="240.8484,-262.95 239.7401,-252.4133 234.0358,-261.3414 240.8484,-262.95"/>
</g>
<!-- def_30 -->
<g id="node10" class="node">
<title>def_30</title>
<ellipse fill="none" stroke="#000000" cx="329.0877" cy="-306" rx="27.2447" ry="18"/>
<text text-anchor="middle" x="329.0877" y="-301.8" font-family="Times,serif" font-size="14.00" fill="#000000">eval</text>
</g>
<!-- def_30&#45;&gt;def_30 -->
<g id="edge15" class="edge">
<title>def_30&#45;&gt;def_30</title>
<path fill="none" stroke="#000000" d="M349.0367,-318.4321C361.8643,-321.6753 374.2098,-317.5313 374.2098,-306 374.2098,-297.6218 367.6927,-293.1433 359.2087,-292.5644"/>
<polygon fill="#000000" stroke="#000000" points="358.6448,-289.103 349.0367,-293.5679 359.332,-296.0692 358.6448,-289.103"/>
</g>
<!-- def_85 -->
<g id="node11" class="node">
<title>def_85</title>
<ellipse fill="none" stroke="#000000" cx="278.0877" cy="-378" rx="38.8652" ry="18"/>
<text text-anchor="middle" x="278.0877" y="-373.8" font-family="Times,serif" font-size="14.00" fill="#000000">prompt</text>
</g>
<!-- def_85&#45;&gt;def_29 -->
<g id="edge13" class="edge">
<title>def_85&#45;&gt;def_29</title>
<path fill="none" stroke="#000000" d="M265.742,-360.5708C259.6931,-352.0312 252.2844,-341.5719 245.5772,-332.1029"/>
<polygon fill="#000000" stroke="#000000" points="248.3103,-329.9061 239.674,-323.7689 242.5981,-333.9522 248.3103,-329.9061"/>
</g>
<!-- def_85&#45;&gt;def_30 -->
<g id="edge9" class="edge">
<title>def_85&#45;&gt;def_30</title>
<path fill="none" stroke="#000000" d="M290.4334,-360.5708C296.7263,-351.6866 304.4912,-340.7245 311.4066,-330.9615"/>
<polygon fill="#000000" stroke="#000000" points="314.2827,-332.9563 317.2069,-322.7729 308.5706,-328.9101 314.2827,-332.9563"/>
</g>
<!-- def_85&#45;&gt;def_85 -->
<g id="edge5" class="edge">
<title>def_85&#45;&gt;def_85</title>
<path fill="none" stroke="#000000" d="M305.6207,-390.854C320.9261,-393.2534 335.0202,-388.9688 335.0202,-378 335.0202,-369.5164 326.589,-365.0312 315.6872,-364.5444"/>
<polygon fill="#000000" stroke="#000000" points="315.3941,-361.0556 305.6207,-365.146 315.8117,-368.0432 315.3941,-361.0556"/>
</g>
<!-- def_86 -->
<g id="node12" class="node">
<title>def_86</title>
<ellipse fill="none" stroke="#000000" cx="278.0877" cy="-450" rx="30.1958" ry="18"/>
<text text-anchor="middle" x="278.0877" y="-445.8" font-family="Times,serif" font-size="14.00" fill="#000000">main</text>
</g>
<!-- def_86&#45;&gt;def_85 -->
<g id="edge10" class="edge">
<title>def_86&#45;&gt;def_85</title>
<path fill="none" stroke="#000000" d="M278.0877,-431.8314C278.0877,-424.131 278.0877,-414.9743 278.0877,-406.4166"/>
<polygon fill="#000000" stroke="#000000" points="281.5878,-406.4132 278.0877,-396.4133 274.5878,-406.4133 281.5878,-406.4132"/>
</g>
</g>
</svg>
